<?xml version="1.0" encoding="UTF-8" standalone="no"?>
<!-- Created with Inkscape (http://www.inkscape.org/) -->

<svg
   xmlns:osb="http://www.openswatchbook.org/uri/2009/osb"
   xmlns:dc="http://purl.org/dc/elements/1.1/"
   xmlns:cc="http://creativecommons.org/ns#"
   xmlns:rdf="http://www.w3.org/1999/02/22-rdf-syntax-ns#"
   xmlns:svg="http://www.w3.org/2000/svg"
   xmlns="http://www.w3.org/2000/svg"
   xmlns:sodipodi="http://sodipodi.sourceforge.net/DTD/sodipodi-0.dtd"
   xmlns:inkscape="http://www.inkscape.org/namespaces/inkscape"
   id="svg2"
   version="1.1"
   inkscape:version="0.91 r13725"
   xml:space="preserve"
   width="107.5"
   height="107.5"
   viewBox="0 0 107.5 107.5"
   sodipodi:docname="icon-launcher-lidderbuch.svg"
   inkscape:export-filename="/home/scharel/Programmierung/harbour-lidderbuch/icons/256x256/harbour-lidderbuch.png"
   inkscape:export-xdpi="215.83"
   inkscape:export-ydpi="215.83"><metadata
     id="metadata8"><rdf:RDF><cc:Work
         rdf:about=""><dc:format>image/svg+xml</dc:format><dc:type
           rdf:resource="http://purl.org/dc/dcmitype/StillImage" /><dc:title></dc:title></cc:Work></rdf:RDF></metadata><defs
     id="defs6"><clipPath
       clipPathUnits="userSpaceOnUse"
       id="clipPath16"><path
         d="M 43,85.7 C 19.417,85.7 0.3,66.583 0.3,43 l 0,0 0,-41.277 C 0.3,0.937 0.937,0.3 1.723,0.3 l 0,0 47.445,0 35.109,0 c 0.786,0 1.423,0.637 1.423,1.423 l 0,0 0,35.11 0,47.444 c 0,0.786 -0.637,1.423 -1.423,1.423 l 0,0 -41.277,0 z"
         id="path18"
         inkscape:connector-curvature="0" /></clipPath><radialGradient
       fx="0"
       fy="0"
       cx="0"
       cy="0"
       r="1"
       gradientUnits="userSpaceOnUse"
       gradientTransform="matrix(42.699997,0,0,-42.699997,43,43)"
       spreadMethod="pad"
       id="radialGradient24"><stop
         style="stop-opacity:1;stop-color:#868688"
         offset="0"
         id="stop26" /><stop
         style="stop-opacity:1;stop-color:#dadada"
         offset="1"
         id="stop28" /></radialGradient><clipPath
       clipPathUnits="userSpaceOnUse"
       id="clipPath36"><path
         d="M 0,86 86,86 86,0 0,0 0,86 Z"
         id="path38"
         inkscape:connector-curvature="0" /></clipPath><clipPath
       clipPathUnits="userSpaceOnUse"
       id="clipPath44"><path
         d="m 11.1,75.2 63.8,0 0,-64.4 -63.8,0 0,64.4 z"
         id="path46"
         inkscape:connector-curvature="0" /></clipPath><clipPath
       clipPathUnits="userSpaceOnUse"
       id="clipPath60"><path
         d="m 12.991,53.399 c -1.044,0 -1.891,-0.852 -1.891,-1.903 l 0,0 0,-38.992 c 0,-1.052 0.847,-1.903 1.891,-1.903 l 0,0 60.019,0 c 1.044,0 1.89,0.851 1.89,1.903 l 0,0 0,38.992 c 0,1.051 -0.846,1.903 -1.89,1.903 l 0,0 -60.019,0 z"
         id="path62"
         inkscape:connector-curvature="0" /></clipPath><linearGradient
       x1="0"
       y1="0"
       x2="1"
       y2="0"
       gradientUnits="userSpaceOnUse"
       gradientTransform="matrix(52.187874,52.187874,52.187874,-52.187874,16.906061,5.9060626)"
       spreadMethod="pad"
       id="linearGradient68"><stop
         style="stop-opacity:1;stop-color:#003866"
         offset="0"
         id="stop70" /><stop
         style="stop-opacity:1;stop-color:#2367a1"
         offset="1"
         id="stop72" /></linearGradient><clipPath
       clipPathUnits="userSpaceOnUse"
       id="clipPath80"><path
         d="M 0,86 86,86 86,0 0,0 0,86 Z"
         id="path82"
         inkscape:connector-curvature="0" /></clipPath><clipPath
       clipPathUnits="userSpaceOnUse"
       id="clipPath88"><path
         d="m 31.0999,53.4 23.8,0 0,-12.8 -23.8,0 0,12.8 z"
         id="path90"
         inkscape:connector-curvature="0" /></clipPath><linearGradient
       osb:paint="solid"
       id="linearGradient4270"><stop
         id="stop4272"
         offset="0"
         style="stop-color:#000000;stop-opacity:1;" /></linearGradient><clipPath
       id="clipPath4404"
       clipPathUnits="userSpaceOnUse"><rect
         y="0"
         x="0"
         height="175.039"
         width="150.039"
         id="rect4406"
         style="fill:#000000;fill-opacity:1" /></clipPath></defs><sodipodi:namedview
     pagecolor="#ffffff"
     bordercolor="#666666"
     borderopacity="1"
     objecttolerance="10"
     gridtolerance="10"
     guidetolerance="10"
     inkscape:pageopacity="0"
     inkscape:pageshadow="2"
     inkscape:window-width="1855"
     inkscape:window-height="1056"
     id="namedview4"
     showgrid="false"
     inkscape:zoom="2.1953488"
     inkscape:cx="86.516553"
     inkscape:cy="30.113922"
     inkscape:window-x="65"
     inkscape:window-y="24"
     inkscape:window-maximized="1"
     inkscape:current-layer="g10" /><g
     id="g10"
     inkscape:groupmode="layer"
     inkscape:label="icon-launcher-lidderbuch"
     transform="matrix(1.25,0,0,-1.25,0,107.5)"
     style="display:inline"><g
       id="g12"><g
         id="g14"
         clip-path="url(#clipPath16)"><g
           id="g20"><g
             id="g22"><path
               d="M 43,85.7 C 19.417,85.7 0.3,66.583 0.3,43 l 0,0 0,-41.277 C 0.3,0.937 0.937,0.3 1.723,0.3 l 0,0 47.445,0 35.109,0 c 0.786,0 1.423,0.637 1.423,1.423 l 0,0 0,35.11 0,47.444 c 0,0.786 -0.637,1.423 -1.423,1.423 l 0,0 -41.277,0 z"
               style="fill:#f29202;fill-opacity:1;stroke:none"
               id="path30"
               inkscape:connector-curvature="0" /></g></g></g></g><g
       transform="matrix(0.42522278,0,0,-0.42522278,11.1,85.031371)"
       clip-path="url(#clipPath4404)"
       style="fill:#ffffff;fill-opacity:1"
       id="g236"><g
         style="fill:#ffffff;fill-opacity:1"
         id="g238"><path
           inkscape:connector-curvature="0"
           style="fill:#ffffff;fill-opacity:1"
           id="path240"
           d="m 48.223,232.822 -6.552,0 c -0.548,0 -0.896,-0.446 -0.896,-0.991 l 0,-12.062 -10.768,0 0,12.062 c 0,0.545 -0.397,0.991 -0.945,0.991 l -6.551,0 c -0.545,0 -0.991,-0.446 -0.991,-0.991 l 0,-25.313 c 0,-8.937 5.407,-10.923 12.061,-10.923 l 3.624,0 c 6.649,0 12.01,1.986 12.01,10.923 l 0,25.313 c -0.001,0.545 -0.448,0.991 -0.992,0.991 z m -7.448,-26.304 c 0,-2.731 -0.792,-3.576 -3.571,-3.576 l -3.624,0 c -2.73,0 -3.573,0.845 -3.573,3.576 l 0,6.253 10.769,0 0,-6.253 z" /><path
           inkscape:connector-curvature="0"
           style="fill:#ffffff;fill-opacity:1"
           id="path242"
           d="m 77.313,232.425 c -1.041,0.348 -3.923,0.844 -7.396,0.844 -7.545,0 -14.692,-3.971 -14.692,-15.784 l 0,-6.253 c 0,-11.813 7.147,-15.735 14.692,-15.735 3.474,0 6.355,0.497 7.396,0.844 0.695,0.198 1.091,0.398 1.091,1.093 l 0,4.813 c 0,0.597 -0.299,0.994 -0.993,0.994 0,0 -0.049,0 -0.098,0 -1.886,-0.15 -4.617,-0.397 -7.348,-0.397 -3.424,0 -6.153,1.787 -6.153,8.389 l 0,6.253 c 0,6.602 2.729,8.389 6.153,8.389 2.73,0 5.462,-0.248 7.348,-0.397 0.049,0 0.098,0 0.098,0 0.694,0 0.993,0.397 0.993,0.992 l 0,4.814 c 0,0.694 -0.395,0.942 -1.091,1.141 z" /><path
           inkscape:connector-curvature="0"
           style="fill:#ffffff;fill-opacity:1"
           id="path244"
           d="m 105.459,232.624 c -1.737,0.246 -4.267,0.645 -9.63,0.645 -6.402,0 -12.062,-1.637 -12.062,-10.673 l 0,-16.477 c 0,-9.033 5.707,-10.623 12.114,-10.623 5.358,0 7.84,0.397 9.577,0.646 0.694,0.1 0.991,0.347 0.991,0.993 l 0,4.616 c 0,0.545 -0.446,0.992 -0.991,0.992 l -10.075,0 c -2.332,0 -3.177,0.792 -3.177,3.375 l 0,4.516 12.856,0 c 0.543,0 0.993,0.448 0.993,0.993 l 0,4.714 c 0,0.549 -0.45,0.995 -0.993,0.995 l -12.856,0 0,5.259 c 0,2.583 0.845,3.377 3.177,3.377 l 10.076,0 c 0.545,0 0.991,0.447 0.991,0.993 l 0,4.615 c 0,0.646 -0.297,0.944 -0.991,1.044 z" /><path
           inkscape:connector-curvature="0"
           style="fill:#ffffff;fill-opacity:1"
           id="path246"
           d="m 132.911,232.624 c -1.639,0.346 -5.46,0.645 -8.092,0.645 -6.403,0 -12.11,-1.637 -12.11,-10.673 l 0,-25.659 c 0,-0.547 0.445,-0.993 0.994,-0.993 l 6.502,0 c 0.544,0 0.99,0.446 0.99,0.993 l 0,25.659 c 0,2.583 0.845,3.377 3.178,3.377 l 8.538,0 c 0.546,0 0.991,0.447 0.991,0.993 l 0,4.615 c 0,0.645 -0.298,0.895 -0.991,1.043 z" /></g><g
         style="fill:#ffffff;fill-opacity:1"
         id="g248"><polygon
           style="fill:#ffffff;fill-opacity:1"
           id="polygon250"
           points="131.961,102.771 140.348,114.645 134.536,127.967 140.541,130.874 150.039,113.733 137.546,99.046 " /><path
           inkscape:connector-curvature="0"
           style="fill:#ffffff;fill-opacity:1"
           id="path252"
           d="m 138.369,114.831 -9.676,-11.373 0,-24.938 c 0,-8.838 -7.167,-16.004 -16.005,-16.004 l -76.022,0 c -8.84,0 -16.005,7.166 -16.005,16.004 l 0,32.673 -8.991,15.802 8.991,10.812 0,20.07 c 0,8.839 7.165,16.005 16.005,16.005 l 76.022,0 c 8.838,0 16.005,-7.166 16.005,-16.005 l 0,-25.992 0.177,0.088 9.499,-17.142 z M 84.6,89.646 c 0.783,-0.643 1.941,-0.531 2.584,0.255 l 8.421,10.253 8.104,-10.92 c 0.605,-0.813 1.751,-0.984 2.569,-0.38 0.815,0.604 0.984,1.755 0.38,2.567 l -8.652,11.66 9.169,11.164 c 0.385,0.468 0.501,1.066 0.364,1.609 -0.092,0.37 -0.299,0.714 -0.615,0.974 -0.785,0.646 -1.941,0.53 -2.587,-0.252 l -8.584,-10.454 -7.867,10.598 c -0.357,0.485 -0.913,0.743 -1.474,0.743 -0.38,0 -0.763,-0.119 -1.094,-0.36 -0.814,-0.606 -0.986,-1.756 -0.381,-2.571 L 93.349,103.197 84.346,92.23 C 83.701,91.445 83.815,90.291 84.6,89.646 Z m -42.668,0 c 0.78,-0.643 1.939,-0.531 2.583,0.255 l 8.42,10.253 8.104,-10.92 c 0.604,-0.813 1.755,-0.984 2.569,-0.38 0.814,0.604 0.984,1.755 0.38,2.567 l -8.649,11.66 9.168,11.164 c 0.385,0.468 0.499,1.066 0.363,1.609 -0.093,0.37 -0.3,0.714 -0.617,0.974 -0.783,0.646 -1.939,0.53 -2.585,-0.252 l -8.586,-10.454 -7.863,10.598 c -0.359,0.485 -0.914,0.743 -1.478,0.743 -0.379,0 -0.762,-0.119 -1.092,-0.36 -0.815,-0.606 -0.984,-1.756 -0.382,-2.571 L 50.68,103.197 41.676,92.23 c -0.642,-0.785 -0.53,-1.939 0.256,-2.584 z m 72.436,42.643 c -0.137,0.156 -13.789,21.501 -39.692,21.588 -25.892,-0.091 -40.19,-21.398 -40.335,-21.553 l 0.003,0.003 c -0.622,-0.916 -0.384,-2.163 0.533,-2.78 0.913,-0.62 2.158,-0.382 2.775,0.532 0.004,0 0.18,0.266 0.588,0.8 0.406,0.532 1.02,1.307 1.835,2.233 1.632,1.864 4.071,4.363 7.242,6.854 6.36,4.984 15.599,9.91 27.358,9.91 20.525,0.047 33.036,-15.195 35.771,-18.965 0.393,-0.532 0.56,-0.793 0.56,-0.793 0.599,-0.93 1.835,-1.198 2.765,-0.598 0.928,0.601 1.196,1.838 0.597,2.769 z" /><polygon
           style="fill:#ffffff;fill-opacity:1"
           id="polygon254"
           points="9.537,111.335 0,128.094 12.531,143.162 17.888,139.186 9.691,127.183 15.719,113.952 " /></g><path
         inkscape:connector-curvature="0"
         style="fill:#ffffff;fill-opacity:1"
         id="path256"
         d="m 116.89,0.01 c -0.333,-0.057 -0.655,0.144 -0.752,0.469 L 104.625,39.805 91.054,33.407 c -0.219,-0.104 -0.478,-0.078 -0.677,0.064 -0.196,0.144 -0.3,0.38 -0.271,0.625 l 5.337,42.677 c 0.04,0.337 0.325,0.583 0.659,0.583 0.005,0 0.012,0 0.02,0 0.344,-0.008 0.62,-0.275 0.646,-0.615 l 2.054,-28.71 14.979,7.384 c 0.201,0.097 0.44,0.088 0.631,-0.023 0.197,-0.115 0.316,-0.317 0.329,-0.542 l 2.684,-54.147 c 0.015,-0.34 -0.22,-0.637 -0.555,-0.693 z" /></g></g></svg>